<!DOCTYPE svg PUBLIC "-//W3C//DTD SVG 1.1//EN" "http://www.w3.org/Graphics/SVG/1.1/DTD/svg11.dtd">
<svg xmlns="http://www.w3.org/2000/svg" viewBox="0 0 100 100">
<path fill="#fbfbfc" stroke="#fbfbfc" d="M30.5 10.447c-.55.214-2.728.679-4.84 1.033-4.82.809-12.052 7.253-13.859 12.35-1.826 5.15-1.826 47.19 0 52.34 1.749 4.932 9.012 11.493 13.859 12.518 4.99 1.055 43.69 1.055 48.68 0 4.847-1.025 12.11-7.586 13.859-12.518 1.479-4.173 1.869-43.985.494-50.48C87.72 21.094 81.849 14.292 77 12.144c-3.268-1.448-43.381-2.912-46.5-1.697m-6.015 5.472c-3.405 1.424-8.43 7.27-9.032 10.509-.314 1.689-.432 13.422-.262 26.072.337 25.085.363 25.2 6.752 30.057 3.927 2.984 52.187 2.984 56.114 0C84.568 77.608 84.5 77.951 84.5 50c0-35.984 1.52-34.409-33.5-34.712-13.475-.116-25.407.168-26.515.631m44.032 8.707c-1.958 1.958-1.631 6.288.578 7.67 2.572 1.609 6.791.007 7.508-2.852 1.228-4.89-4.563-8.341-8.086-4.818m-24.632 5.701c-17.251 6.417-19.662 28.273-4.122 37.38C57.75 78.248 78.248 57.75 67.707 39.763c-4.801-8.192-15.632-12.482-23.822-9.436m1.615 7.202c-7.911 2.755-11.043 10.194-7.585 18.012 5.204 11.764 21.664 10.162 25.057-2.438 2.76-10.251-7.218-19.146-17.472-15.574" fill-rule="evenodd"/>
<path fill="#c7b5fc" stroke="#c7b5fc" d="M22.5 12.89C12.178 17.654 11 21.454 11 50s1.178 32.346 11.5 37.11c6.013 2.775 48.987 2.775 55 0C87.822 82.346 89 78.546 89 50s-1.178-32.346-11.5-37.11c-6.013-2.775-48.987-2.775-55 0m3 2.612C15.747 18.95 14.011 24.162 14.011 50c0 34.3 1.689 35.989 35.989 35.989S85.989 84.3 85.989 50c0-34.411-1.63-36.017-36.489-35.951-14.603.028-21.079.42-24 1.453m42.566 10.374c-1.568 2.93-1.334 3.902 1.367 5.672 3.608 2.364 6.792.434 6.375-3.864-.388-4.009-5.878-5.291-7.742-1.808M41.5 31.89C22.263 40.768 28.783 70 50 70c21.625 0 27.71-30.12 7.768-38.452-4.925-2.058-11.36-1.923-16.268.342m1.741 6.105c-8.188 4.992-9.576 15.137-2.974 21.738 6.601 6.602 16.746 5.214 21.738-2.974 7.127-11.689-7.075-25.891-18.764-18.764" fill-rule="evenodd"/>
<path fill="#cf70fc" stroke="#cf70fc" d="M21.899 13.784c-4.315 2.254-5.861 3.8-8.115 8.115L11 27.228v45.544l2.784 5.329c2.254 4.315 3.8 5.861 8.115 8.115L27.228 89h45.544l5.329-2.784c4.315-2.254 5.861-3.8 8.115-8.115L89 72.772V27.228l-2.784-5.329c-2.254-4.315-3.8-5.861-8.115-8.115L72.772 11H27.228l-5.329 2.784m2.601 1.633c-3.727 1.664-8.031 6.179-9.436 9.898-1.665 4.406-1.405 45.953.313 49.967C19.414 84.718 23.555 86 50 86c26.445 0 30.586-1.282 34.623-10.718 1.968-4.599 1.968-45.965 0-50.564-1.665-3.892-6.107-8.207-9.938-9.654-4.32-1.633-46.4-1.336-50.185.353" fill-rule="evenodd"/>
<path fill="#3266fc" stroke="#3266fc" d="M25.585 12.242c-6.021 1.592-12.108 8.261-13.582 14.882-1.895 8.511-.988 46.449 1.206 50.478C18.525 87.363 23.777 88.989 50 88.989s31.475-1.626 36.791-11.387c2.194-4.029 3.101-41.967 1.206-50.478-1.566-7.033-7.493-13.256-14.246-14.956-5.746-1.447-42.627-1.391-48.166.074m-2.405 3.414c-1.827.914-4.527 3.242-6 5.173l-2.68 3.51-.26 24.581c-.394 37.105-.45 37.047 35.76 37.047 35.899 0 35.958-.059 35.984-35.816.018-26.153-.375-28.057-6.794-32.957L75.661 14.5l-24.581-.253c-21.256-.22-25.029-.029-27.9 1.409" fill-rule="evenodd"/>
</svg>