<!DOCTYPE svg PUBLIC "-//W3C//DTD SVG 1.1//EN" "http://www.w3.org/Graphics/SVG/1.1/DTD/svg11.dtd">
<svg xmlns="http://www.w3.org/2000/svg" viewBox="0 0 100 100">
<path fill="#fbfbfc" stroke="#fbfbfc" d="M44.043 10.154c-24.165 3.937-38.85 28.819-31.05 52.611l2.235 6.816-2.675 9.816c-1.47 5.399-2.437 10.052-2.148 10.341.289.29 5.3-.67 11.135-2.132l10.61-2.659 5.897 2.15C56.063 93.666 77.77 84.45 86.561 66.5c4.256-8.69 4.365-25.096.223-33.53-8.22-16.736-25.018-25.704-42.741-22.816M43 14.39C21.485 19.174 9.037 42.434 17.19 62.618l2.378 5.889-2.217 7.98c-1.219 4.39-2.064 8.134-1.876 8.321.187.187 3.955-.635 8.374-1.828l8.034-2.168 5.744 2.15c13.516 5.057 27.647 1.939 37.961-8.374 20.639-20.64 9.759-55.171-19.062-60.499C49.66 12.82 50.107 12.81 43 14.39m-2.995 3.218c-18.619 6.762-27.942 27.733-20.094 45.2 2.36 5.253 2.368 5.369.697 11.377-2.081 7.486-2.13 7.441 5.868 5.431 6.443-1.618 6.616-1.608 10.786.613 6.112 3.255 20.224 3.264 26.814.016 31.639-15.591 22.819-62.389-12.051-63.936-5.186-.23-8.922.174-12.02 1.299m0 4.136c-15.388 5.43-23.285 25.462-15.95 40.463 2.018 4.127 2.174 5.267 1.262 9.25-.572 2.499-.764 4.54-.428 4.537.336-.003 2.323-.481 4.417-1.062 3.266-.907 4.47-.733 8.5 1.228C56.908 85.454 80 70.864 80 49.5c0-20.213-20.686-34.569-39.995-27.756M33.116 33.58C22.775 46.727 54.128 76.34 67.365 65.927c4.177-3.285 3.629-7.379-1.325-9.907-5.095-2.599-5.677-2.553-8.442.661l-2.306 2.68-4.612-2.703c-7.41-4.342-10.297-8.804-8.102-12.521 1.675-2.835 1.665-3.154-.234-7.796-2.457-6.007-5.871-7.028-9.228-2.761" fill-rule="evenodd"/>
<path fill="#cab8fc" stroke="#cab8fc" d="M36.665 12.399C25.232 17.193 19.328 22.79 14.234 33.664c-3.652 7.795-3.979 23.139-.647 30.336l2.083 4.5-2.808 10.444c-1.544 5.744-2.648 10.603-2.454 10.798.195.194 4.992-.822 10.661-2.259l10.307-2.613 6.82 2.193c19.056 6.127 39.04-2.608 48.109-21.031 6.902-14.02 3.548-33.232-7.779-44.558C67.9 10.848 49.75 6.913 36.665 12.399M41 14.601C20.429 20.098 8.709 43.687 17.021 62.866l2.325 5.366-2.131 8.093c-1.172 4.451-1.933 8.29-1.692 8.531.241.241 4.16-.557 8.708-1.774L32.5 80.87l5 2.245c16.438 7.384 37.57-1.356 45.799-18.94C96.1 36.819 70.432 6.737 41 14.601m1.734 2.426c-19.768 4.979-31.22 28.049-22.641 45.613l2.51 5.14-1.777 6.302c-2.162 7.666-2.429 7.388 5.202 5.411 6.113-1.584 6.362-1.57 11.361.668 21.367 9.565 46.102-6.885 46.102-30.661 0-21.264-20.479-37.58-40.757-32.473M37.2 23.058c-14.251 7.121-19.91 22.827-13.762 38.195 2.289 5.721 2.526 7.219 1.645 10.409-1.287 4.662-.998 4.929 3.798 3.492 3.471-1.04 4.475-.896 9.256 1.33C58.16 85.805 79.486 71.888 79.486 49.5 79.486 31.69 67.999 20 50.5 20c-6.008 0-8.18.499-13.3 3.058M32.975 34.75c-9.977 12.643 24.118 42.141 34.611 29.944 3.645-4.237 3.129-6.123-2.336-8.539l-4.75-2.1-2.287 2.571c-2.97 3.34-5.86 2.662-11.734-2.752-5.267-4.855-6.106-6.987-4.008-10.19 1.455-2.22 1.423-2.766-.411-7.045-2.406-5.611-5.62-6.279-9.085-1.889" fill-rule="evenodd"/>
<path fill="#ece4fc" stroke="#ece4fc" d="M38.836 11.859c-11.231 3.71-20.908 12.59-24.948 22.894-3.11 7.932-3.177 21.454-.145 29.068l2.119 5.322-2.855 10.171c-1.571 5.594-2.773 10.253-2.672 10.354.101.101 5.019-1.004 10.929-2.456 10.622-2.61 10.799-2.62 15.491-.863 21.873 8.191 45.981-4.545 51.832-27.381C96.08 29.721 67.291 2.461 38.836 11.859m1.45 2.533C19.598 21.148 8.774 43.59 16.799 63.085l2.299 5.585-2.049 7.395c-2.897 10.456-3.223 10.069 6.272 7.457l8.32-2.29 7.43 2.501c36.428 12.259 64.555-34.7 36.354-60.695-9.233-8.511-24.243-12.205-35.139-8.646m4.069 2.619C23.88 21.205 11.86 43.908 20.324 62.397l2.547 5.562-1.891 6.61c-1.306 4.568-1.518 6.468-.685 6.148 7.188-2.757 12.687-2.971 17.9-.695 26.523 11.577 54.257-17.211 42.283-43.891-6.109-13.613-21.985-22.017-36.123-19.12m-1.683 3.367c-17.702 4.96-26.854 24.624-19.219 41.299 2.181 4.765 2.414 6.141 1.561 9.212-1.666 5.998-1.538 6.173 3.424 4.68 4.163-1.253 4.768-1.176 9.75 1.241 19.304 9.366 41.955-5.378 41.955-27.31 0-19.76-18.783-34.358-37.471-29.122" fill-rule="evenodd"/>
<path fill="#963ffc" stroke="#963ffc" d="M41.5 11.386C18.361 17.013 5.774 41.129 14.182 63.727l1.944 5.226-2.623 9.63c-1.443 5.296-2.387 9.867-2.097 10.156.289.289 5.056-.61 10.592-1.998l10.067-2.524 4.95 1.881c23.024 8.748 47.697-5.865 52.1-30.86 4.678-26.559-21.1-50.3-47.615-43.852m-3.722 3.506C18.555 22.599 9.052 43.741 16.459 62.329l2.458 6.171-2.401 8.475c-1.32 4.661-2.25 8.624-2.067 8.807.183.183 4.148-.668 8.813-1.892l8.48-2.224 7.145 2.298c43.106 13.86 67.957-47.706 27.312-67.665-7.521-3.694-21.046-4.363-28.421-1.407m.395 4.259c-16.617 6.384-25.08 28.015-17.271 44.147 2.198 4.541 2.213 4.793.617 10.286-2.013 6.924-1.956 6.982 5.164 5.245 5.505-1.344 6.059-1.297 11.735.996 15.646 6.32 33.907-.606 41.302-15.664 3.882-7.904 4.032-21.108.327-28.661-7.545-15.383-25.819-22.517-41.874-16.349m4.827.724C24.436 25.987 15.282 45.339 23.073 62c2.386 5.104 2.483 5.846 1.338 10.31l-1.234 4.81 3.161-.779c4.864-1.199 8.619-.792 15.162 1.641C70.158 88.64 93.651 50.901 72.201 28.664 64.968 21.165 51.444 17.095 43 19.875" fill-rule="evenodd"/>
</svg>