<!DOCTYPE svg PUBLIC "-//W3C//DTD SVG 1.1//EN" "http://www.w3.org/Graphics/SVG/1.1/DTD/svg11.dtd">
<svg xmlns="http://www.w3.org/2000/svg" viewBox="0 0 100 100">
<path fill="#fcfcfc" stroke="#fcfcfc" d="M19.016 10.991c-8.555 2.093-9.305 5.784-8.845 43.509.352 28.868.533 29.949 5.57 33.25 4.063 2.662 64.455 2.662 68.518 0 5.166-3.385 5.241-3.923 5.241-37.794 0-34.228-.109-34.948-5.75-38.171-2.656-1.517-58.955-2.208-64.734-.794m-2.361 5.838c-2.656 2.935-2.497 64.099.174 66.516 1.552 1.405 4.425 1.655 19 1.655H53V60H42V46h11v-6.099c0-12.562 4.99-16.841 18.75-16.081 3.247.18 3.25.186 3.25 5.623v5.442l-4.25.308-4.25.307-.302 5.25-.303 5.25h4.494c5.508 0 5.561.084 4.76 7.5l-.649 6-4.25.307-4.25.308V85h7.845C85.729 85 85 87.299 85 49.826c0-29.262-.131-31.634-1.829-33.171-2.935-2.656-64.099-2.497-66.516.174" fill-rule="evenodd"/>
<path fill="#f5f3fc" stroke="#f5f3fc" d="M16.11 12.396c-4.865 2.696-5.037 3.961-5.075 37.404-.038 33.972.197 35.618 5.437 38.005 4.109 1.872 63.711 1.669 67.383-.23C88.76 85.039 89 83.286 89 50s-.24-35.039-5.145-37.575c-3.879-2.006-64.131-2.032-67.745-.029m2.91 2.866c-4.849 2.497-5.055 4.051-4.778 35.962.326 37.555-1.816 34.153 21.783 34.592L53 86.132V60.105l-5.25-.303-5.25-.302-.298-6.25-.297-6.25H53v-6.032c0-12.027 3.674-16.261 14.588-16.812L75 23.781v11.104l-4.25.308-4.25.307-.3 5.75-.3 5.75h4.956c4.189 0 4.902.271 4.602 1.75-.194.962-.63 3.888-.967 6.5L73.877 60H66v26.219l7.491-.379C86.093 85.204 85.5 86.975 85.5 50c0-30.863-.006-30.95-2.276-33.222-2.255-2.256-2.565-2.281-32-2.536-22.584-.196-30.32.049-32.204 1.02" fill-rule="evenodd"/>
<path fill="#a1bcfc" stroke="#a1bcfc" d="M14.4 14.4 11 17.8v64.4l3.4 3.4 3.4 3.4h64.4l3.4-3.4 3.4-3.4V17.8l-3.4-3.4-3.4-3.4H17.8l-3.4 3.4m3.964.77c-1.175.568-2.637 2.134-3.25 3.479-1.533 3.366-1.537 59.329-.004 62.694C16.937 85.351 19.994 86 37.047 86H53V59H42V47h10.71l.58-6.925C54.314 27.865 58.204 24 69.468 24H75v10h-3.429C66.758 34 65 36.159 65 42.071V47h5c5.49 0 5.395-.159 4.371 7.309-.623 4.543-.67 4.592-4.75 4.89L65.5 59.5l-.279 13.25L64.942 86h6.982C86.135 86 86 86.347 86 50c0-30.609-.307-32.908-4.657-34.89-3.208-1.461-59.948-1.408-62.979.06" fill-rule="evenodd"/>
<path fill="#3b60fc" stroke="#3b60fc" d="M16.763 12.565C11.243 15.56 11 17.14 11 50c0 42.399-3.399 39 39 39s39 3.399 39-39c0-33.059-.232-34.517-5.967-37.483-4.289-2.218-62.172-2.175-66.27.048m-.308 3.89L14 18.909v62.182l2.455 2.454L18.909 86h62.182l2.454-2.455L86 81.091V18.909l-2.455-2.454L81.091 14H18.909l-2.454 2.455" fill-rule="evenodd"/>
</svg>